<?xml version="1.0" encoding="UTF-8"?>
<svg width="33px" height="33px" viewBox="0 0 33 33" version="1.1" xmlns="http://www.w3.org/2000/svg" xmlns:xlink="http://www.w3.org/1999/xlink">
    <!-- Generator: Sketch 61 (89581) - https://sketch.com -->
    <title>banjo</title>
    <desc>Created with Sketch.</desc>
    <g id="website" stroke="none" stroke-width="1" fill="none" fill-rule="evenodd" fill-opacity="0.779173951">
        <g id="Artboard-Copy" transform="translate(-701.000000, -950.000000)" fill="#253533">
            <g id="footer" transform="translate(622.000000, 950.000000)">
                <g id="banjo" transform="translate(79.349998, 0.000000)">
                    <path d="M31.7106607,0.58887955 C33.0641788,1.94225288 32.0381457,3.94784561 31.8610837,4.30529947 C31.9391184,4.79696142 32.3179992,5.3450863 32.0649294,5.58802174 C31.8115701,5.83095717 30.8891972,5.2577859 30.8663225,5.16976162 C30.7080815,5.43904643 30.55013,5.70847602 30.4166458,5.93563079 C30.466449,6.24009635 30.8169536,6.7647674 30.5971824,7.03854029 C30.3774113,7.31245796 29.8394208,6.93980253 29.4299921,6.88652467 C28.835249,7.08255243 28.143216,7.30087581 27.4592905,7.54250826 C27.2897569,7.60244585 27.1205129,7.71276575 26.9958601,7.8427753 C23.4724276,11.5111293 19.9546414,15.1848401 16.4374343,18.8589852 C16.4063073,18.89156 16.3941461,18.9422319 16.3599787,19.0111456 C17.7853061,21.5283795 18.1097509,24.1853229 16.9864279,26.8946756 C16.0947477,29.0459137 14.0628056,31.0092316 11.576554,31.8907774 C7.2468596,33.4259904 4.29109687,31.5738611 2.36209106,29.6447105 C-1.24400895,26.0386105 0.311907093,21.1710704 0.459000301,20.7447028 C2.23367406,15.5973092 8.19167286,13.2726284 12.9902992,15.8428506 C13.1366685,15.9213196 13.2801423,16.0052901 13.4573491,16.1047518 C15.0142786,14.6110897 16.5584677,13.1271277 18.1052628,11.6460613 C20.2294277,9.61209232 22.3622792,7.58695473 24.4712426,5.53749464 C24.6873943,5.32756831 24.7836709,4.9847369 24.9070207,4.69156392 C25.1541547,4.10478363 25.3814542,3.5096063 25.5617013,3.05746841 C25.4919189,2.59592004 25.0418079,2.17071064 25.3772557,1.83511807 C25.7128482,1.49967027 26.5545804,2.22934524 26.5545804,2.22934524 C26.7432246,1.98973967 26.9317239,1.7501341 26.9962944,1.66833522 C26.9590868,1.15046868 26.5663074,0.662715707 26.9000178,0.329005231 C27.2335835,-0.00456046854 27.698317,0.612912495 28.215894,0.71338758 C28.3881783,0.627390173 30.3572873,-0.764783337 31.7106607,0.58887955 Z M3.06673413,18.3261198 C0.650844011,20.9426705 0.280360233,25.2499245 2.29203358,27.8075511 C3.06890578,26.8122107 3.84201378,25.8307689 4.6044083,24.8412196 C4.96113828,24.3782235 5.31338019,24.3233531 5.73743137,24.7626059 C6.32392211,25.3700892 6.93314279,25.9554217 7.52832013,26.5543633 C8.16360064,27.1936975 8.15230805,27.3682983 7.45144366,27.9190292 C6.50807817,28.6602863 5.56369924,29.4003852 4.60455308,30.1530797 C7.54439036,32.2265727 11.859607,31.7134838 14.4309874,29.037285 C17.1409192,26.2164543 17.1132668,22.0911847 15.5566269,19.8613328 C15.0187811,20.2019925 14.8231877,20.5475747 15.1015935,21.2587182 C16.172073,23.9919591 15.3076108,27.0402341 13.0247706,28.8812157 C11.4952039,30.1148586 9.72603164,30.5299336 7.80426468,30.2648473 C7.57450393,30.2331412 7.09529279,30.1433796 7.18621261,29.656061 C7.27713242,29.1688871 8.111481,29.2919474 8.20732323,29.30324 C10.4486125,29.5644173 12.6561689,28.4332763 13.7928114,26.4408583 C14.9159896,24.4721836 14.7771487,21.9634916 13.3754199,20.1827372 C11.8633712,18.2621285 9.86009494,17.5126191 7.47634527,18.0595857 C4.57965147,18.7242559 2.84421222,21.3121409 3.13897774,24.3443457 C3.1741585,24.7064325 3.32038304,25.1927377 2.72361316,25.2363155 C2.17548827,25.2761291 2.16173448,24.8306509 2.12394774,24.4356999 C1.63387834,19.3159586 6.34998193,15.561752 11.1380396,17.3147092 C11.8416547,17.5722671 12.2088086,17.4493516 12.5860969,16.8601101 C9.78900954,14.9823553 5.53734987,15.6505001 3.06673413,18.3261198 Z M5.18205317,25.7765645 C4.41328847,26.7632183 3.65451337,27.7372764 2.94988479,28.6415522 C3.22018304,28.9920568 3.43532133,29.2708968 3.66957016,29.5747833 C4.72209734,28.7507139 5.67965096,28.0009149 6.60535369,27.2760176 C6.1102171,26.7543869 5.65967177,26.2796638 5.18205317,25.7765645 Z M25.3973796,6.09025239 C21.1814798,10.1199693 16.9949697,14.1217442 12.8725957,18.061989 C13.4018996,18.5991109 13.8547614,19.0586324 14.3497532,19.5610078 C18.322428,15.4053351 22.3279671,11.2153504 26.3042614,7.05576873 C25.995163,6.72669111 25.7216796,6.435545 25.3973796,6.09025239 Z M30.5526925,1.04641761 C29.9321793,0.772789492 29.3600214,0.895270648 28.8845745,1.34045924 C28.1825519,1.9978906 27.5110772,2.68818628 26.8348248,3.37269089 C25.55051,4.67235204 25.6709643,4.92571141 26.8045665,5.96216837 C27.5255549,6.62133705 27.9255731,6.67620744 28.6262927,6.00864172 C29.4445711,5.22901876 30.2550315,4.43781366 31.0198872,3.60650539 C31.1391833,3.4767854 31.5753957,2.90549623 31.5357269,2.41701937 C31.4836072,1.7802911 30.8978404,1.198578 30.5526925,1.04641761 Z" id="Combined-Shape"></path>
                    <path d="M7.12381381,22.387398 C6.96007128,22.5355047 6.72958664,22.6459693 6.7142403,22.7810461 C6.6912208,22.9828649 6.75810767,23.259099 6.89361873,23.4041653 C7.56697553,24.1251537 8.2555339,24.835139 8.98593275,25.4970585 C9.15546636,25.6505218 9.59182357,25.7275431 9.76193629,25.6176575 C10.1458843,25.3697997 9.94160427,25.0402877 9.67912397,24.7783865 C8.99765967,24.0979357 8.31981479,23.4140102 7.63154598,22.7406534 C7.50081255,22.6129602 7.41447073,22.5276867 7.20975636,22.387398" id="Fill-4"></path>
                </g>
            </g>
        </g>
    </g>
</svg>