<?xml version="1.0" encoding="UTF-8"?>
<svg width="26px" height="17px" viewBox="0 0 26 17" version="1.1" xmlns="http://www.w3.org/2000/svg" xmlns:xlink="http://www.w3.org/1999/xlink">
    <!-- Generator: Sketch 61 (89581) - https://sketch.com -->
    <title>cat</title>
    <desc>Created with Sketch.</desc>
    <defs>
        <polygon id="path-1" points="0 0.0181966785 25.9993965 0.0181966785 25.9993965 16.3788496 0 16.3788496"></polygon>
    </defs>
    <g id="website" stroke="none" stroke-width="1" fill="none" fill-rule="evenodd">
        <g id="Artboard-Copy" transform="translate(-688.000000, -955.000000)">
            <g id="cat" transform="translate(688.000000, 955.000000)">
                <g id="Group-3">
                    <mask id="mask-2" fill="white">
                        <use xlink:href="#path-1"></use>
                    </mask>
                    <g id="Clip-2"></g>
                    <path d="M21.047342,15.800298 C21.3899687,15.7812482 21.6226108,15.4111869 21.4474,15.1331999 C21.3805141,15.0269641 21.2621311,14.9423988 21.1501853,14.8774378 C20.5887462,14.5515742 20.0215238,14.2356891 19.4565644,13.9158226 C18.9216785,13.6129902 18.3873961,13.3089987 17.8522085,13.0066198 C17.6530093,12.8940845 17.3709319,12.9747692 17.2550634,13.1744905 C17.1292375,13.3913969 17.1917482,13.6397507 17.4065876,13.7666491 C17.6286186,13.8978311 17.850901,14.0284084 18.0749435,14.1560122 C18.9750364,14.6688972 19.8753304,15.1814797 20.7772839,15.6910889 C20.8611176,15.7384112 20.9570209,15.7644158 21.047342,15.800298 M4.96043288,15.7991893 C5.05050251,15.7623999 5.14550058,15.7343291 5.22988743,15.6873091 C5.56763598,15.4990279 5.90211567,15.3049007 6.23785261,15.1129405 C7.02182553,14.6646639 7.80293191,14.210894 8.59228588,13.7721927 C8.77146963,13.6725588 8.85998027,13.3664002 8.76779845,13.1962617 C8.6599764,12.9971453 8.38649865,12.9028031 8.18624333,13.0002195 C8.05101315,13.0659869 7.91880039,13.1383058 7.78779458,13.212187 C7.05325687,13.6263957 6.31922205,14.041461 5.58563985,14.4574336 C5.28983327,14.6251026 4.99276944,14.7908566 4.70199188,14.9669419 C4.52466886,15.0742864 4.45873849,15.274562 4.51798027,15.4611802 C4.58215048,15.6631692 4.74423559,15.7822057 4.96043288,15.7991893 M18.5330364,10.6302748 C18.5572762,10.6282589 18.5959996,10.6258903 18.6344716,10.6218082 C19.5021776,10.5293306 20.3699841,10.4375083 21.2375896,10.3438212 C21.9388855,10.2680753 22.6403323,10.1938413 23.3404213,10.1082177 C23.4342627,10.0967273 23.540928,10.0418959 23.6061544,9.97325593 C23.752901,9.81879073 23.7670828,9.65888271 23.6694696,9.46258844 C23.5795006,9.28171549 23.4116321,9.21589769 23.2159029,9.23494756 C22.6893652,9.28620078 22.1630789,9.3401754 21.6370441,9.39656906 C20.9486727,9.4702991 20.260754,9.54790967 19.5725335,9.62259725 C19.191988,9.66392236 18.810135,9.69456342 18.4309977,9.74571584 C18.181458,9.77943108 18.036723,9.99729505 18.0661427,10.2537123 C18.0906843,10.4677965 18.2897327,10.633601 18.5330364,10.6302748 M2.78986035,9.23691302 C2.49541161,9.22713611 2.29173656,9.39924007 2.27574429,9.63262615 C2.25844449,9.88617082 2.41952379,10.084481 2.67454507,10.1135093 C3.22145029,10.1757994 3.76870754,10.235116 4.31601509,10.2942311 C4.9353381,10.3610568 5.55486228,10.4259675 6.17428588,10.49239 C6.58475397,10.5364365 6.99507118,10.5818942 7.40553926,10.6260415 C7.54720658,10.6412612 7.68092805,10.6246304 7.78960503,10.5195537 C7.92548897,10.3881197 7.97678491,10.229522 7.91774429,10.0487499 C7.85181393,9.84676078 7.70179845,9.75025152 7.49228975,9.72873223 C6.38042515,9.61438263 5.26891257,9.49690844 4.15724913,9.38044219 C3.68688549,9.33115443 3.21652186,9.28166509 2.78986035,9.23691302 M13.0048429,9.54241646 C12.7250286,9.54241646 12.4450634,9.5389895 12.1652994,9.5432228 C11.709872,9.55012712 11.406019,10.0392753 11.6238255,10.4406328 C11.9030867,10.9553321 12.1988429,11.4615143 12.5026959,11.9621024 C12.7093381,12.3024802 13.3042704,12.291141 13.5079957,11.9489994 C13.7988236,11.4605063 14.0854774,10.9692919 14.3625257,10.4727858 C14.60246,10.0429039 14.2985567,9.54362597 13.8056631,9.54226527 C13.538723,9.54161011 13.271783,9.54216448 13.0048429,9.54241646 M13.005899,16.3788496 C13.5639687,16.3656457 14.1276205,16.3200369 14.6901157,16.2252915 C15.7745219,16.0425035 16.7947075,15.6880147 17.7513265,15.1471093 C17.9914116,15.0113412 18.0711215,14.7579981 17.950224,14.5319195 C17.8313381,14.3095703 17.5713884,14.2454156 17.3234077,14.3674254 C16.992046,14.5305084 16.6615393,14.6965144 16.3227346,14.8428154 C15.7113574,15.1068929 15.0686495,15.2671537 14.413017,15.371928 C13.708754,15.4844129 13.0002162,15.4939883 12.28846,15.4520584 C11.6102975,15.412094 10.9511447,15.2712358 10.305872,15.0772598 C9.74196867,14.9077765 9.20316015,14.6647647 8.68738453,14.3751865 C8.44820464,14.2409303 8.17573269,14.3127453 8.04864952,14.5354977 C7.92488549,14.7523537 8.01017756,15.0324069 8.26404217,15.1540136 C8.7364677,15.3803442 9.20798801,15.6135287 9.69645609,15.8002476 C10.7564213,16.2054353 11.8647656,16.3629747 13.005899,16.3788496 M15.3452452,11.2147731 C15.3450944,11.4405493 15.5011447,11.62495 15.7309706,11.6633017 C15.9346456,11.697269 16.1394774,11.7242815 16.3434542,11.7565352 C17.0019532,11.8605032 17.6605025,11.9638159 18.3184986,12.0706565 C18.848607,12.156784 19.3775083,12.2504711 19.9077172,12.3359435 C20.9735663,12.5076443 22.040019,12.6757165 23.1061698,12.8459054 C23.9005528,12.972703 24.6945838,13.1014156 25.4891679,13.2269532 C25.7196979,13.2634402 25.9207578,13.129184 25.9801002,12.9079435 C26.0585025,12.6156943 25.8940538,12.3936979 25.5617868,12.3406808 C24.253489,12.131737 22.9450905,11.9234484 21.6371447,11.7127911 C20.2910286,11.4958847 18.9453652,11.2763576 17.5995006,11.0581409 C17.0220692,10.9645546 16.4447385,10.8700108 15.8669551,10.7785412 C15.5896553,10.7346459 15.3453961,10.9415738 15.3452452,11.2147731 M10.6552409,11.2183513 C10.6562936,10.9452528 10.4106766,10.7342427 10.1380035,10.7780373 C8.9826882,10.9637483 7.82772495,11.1519791 6.6722588,11.3371358 C5.80591064,11.475978 4.93880812,11.6104862 4.07245996,11.7490765 C3.21451025,11.8863565 2.35696286,12.0255012 1.49946576,12.1653514 C1.11303636,12.2283974 0.725802321,12.2875629 0.341786847,12.3631072 C0.101148549,12.4104295 -0.0362441006,12.6352986 0.00831295938,12.8666688 C0.0552839458,13.1098318 0.263736557,13.2636922 0.506939652,13.2276084 C0.889899033,13.1708115 1.27245609,13.1111925 1.6547617,13.049608 C2.52528395,12.9094554 3.39545416,12.7668838 4.26592611,12.626076 C5.67545803,12.3980824 7.08504023,12.1701391 8.49487389,11.9435061 C9.08492805,11.84866 9.67558569,11.757392 10.2658913,11.6640073 C10.492046,11.6281754 10.6544329,11.4415069 10.6552409,11.2183513 M17.516723,2.0386332 C17.7739571,1.93784025 18.0132878,1.84354844 18.2530712,1.75026456 C18.9345528,1.4852295 19.6131679,1.21218139 20.2990248,0.958888705 C20.7075315,0.808052053 20.9918217,1.0462258 20.977841,1.42853346 C20.9630054,1.83372113 20.958077,2.23946315 20.9352453,2.64424765 C20.8911408,3.42730809 20.7403207,4.19172183 20.4921389,4.93496906 C20.3132066,5.47093558 20.3122008,6.00297117 20.5008894,6.53208377 C20.7417288,7.20719496 20.8979803,7.89631637 20.8968236,8.61728835 C20.8966727,8.70517981 20.9132182,8.80073152 20.9501814,8.87940042 C21.0314,9.05195796 21.2528275,9.1414621 21.4448352,9.09736518 C21.6487617,9.05059725 21.787311,8.87703179 21.7856515,8.65191073 C21.7794658,7.82072166 21.6361892,7.01463003 21.3376166,6.23741558 C21.2190828,5.92873716 21.2166689,5.61441434 21.3060344,5.29797487 C21.4030441,4.95411972 21.5146379,4.61364113 21.5953033,4.26595584 C21.8248275,3.27682421 21.8997095,2.27106174 21.8636012,1.25834456 C21.837048,0.511720775 21.088781,-0.0995884758 20.3544948,0.0375403348 C20.049636,0.0944883524 19.7559416,0.221235489 19.4633536,0.332410115 C18.4541311,0.715876899 17.448077,1.1076591 16.4389551,1.49147866 C16.3777017,1.51476183 16.2940692,1.51597135 16.2320615,1.49465364 C15.4969203,1.24241928 14.7429706,1.07273434 13.970313,1.00152412 C12.5283942,0.868628617 11.1179068,1.02269064 9.74704797,1.50432976 C9.69927234,1.52111179 9.63515242,1.52060782 9.58747737,1.50347302 C9.33652959,1.41336412 9.08819691,1.31579655 8.83931103,1.21999285 C7.88017756,0.850536282 6.92330716,0.475082537 5.96145803,0.112883066 C5.04899381,-0.230720106 4.13326074,0.408357604 4.13326074,1.38398298 C4.13326074,1.78080483 4.13813888,2.17848342 4.16363598,2.57424694 C4.22167079,3.47221135 4.36499768,4.3566191 4.66578298,5.20781558 C4.7961853,5.57671778 4.78783714,5.92752765 4.64606925,6.29078544 C4.35498994,7.03695567 4.22614662,7.81643796 4.2144793,8.61577646 C4.21020464,8.91251091 4.39114855,9.10527743 4.66241354,9.10583179 C4.92885068,9.10638615 5.09485841,8.92198544 5.1071795,8.62590615 C5.11753926,8.37619161 5.12850251,8.12567073 5.15807311,7.87772007 C5.21907505,7.36624624 5.37713694,6.87936589 5.54731876,6.39505575 C5.70714081,5.94007637 5.69502089,5.4792006 5.53887002,5.02401963 C5.27595319,4.25713646 5.11492418,3.46948994 5.06669594,2.66052571 C5.04155087,2.23870721 5.03008472,1.81567919 5.02591064,1.39305434 C5.02244062,1.03937188 5.28616209,0.845446238 5.62350832,0.942812229 C5.73852186,0.976023507 5.84961277,1.02344659 5.96165919,1.06648518 C6.66833617,1.3379206 7.37481199,1.60996078 8.08128781,1.88190016 C8.21184101,1.93214544 8.34234391,1.98274351 8.49462244,2.0415058 C8.41048704,2.08978562 8.34636712,2.12365205 8.28516402,2.16220536 C7.99760503,2.34343108 7.70265338,2.51442633 7.42605764,2.71117417 C7.14604217,2.91029064 7.17324913,3.29567249 7.46548511,3.46646615 C7.66257215,3.5816221 7.83999574,3.51041188 8.00499768,3.39147619 C8.48863791,3.04273258 9.00858762,2.76116747 9.55851025,2.53251866 C10.4727849,2.15237804 11.4233188,1.9356732 12.411017,1.87056095 C13.0543787,1.82817752 13.6925103,1.86174157 14.329988,1.9499354 C15.2284716,2.07421311 16.086371,2.33476289 16.8940306,2.74393188 C17.2994193,2.94929752 17.6822279,3.19991919 18.0725799,3.43441399 C18.3032607,3.5730043 18.5339919,3.53681963 18.6861195,3.32827901 C18.8254232,3.13712518 18.7865992,2.87481152 18.5865451,2.71843126 C18.4750518,2.63129575 18.3542046,2.55544906 18.2341621,2.48000553 C18.0016205,2.33405734 17.7665644,2.19204007 17.516723,2.0386332" id="Fill-1" fill="#FFFFFF" mask="url(#mask-2)"></path>
                </g>
                <path d="M12.9485933,16.3788694 C11.8107863,16.3634068 10.7055741,16.2099593 9.64865214,15.815296 C9.1615865,15.6333778 8.69141998,15.4062992 8.22035083,15.1857982 C7.9672151,15.0673502 7.88221806,14.7946201 8.00562674,14.5833967 C8.1322949,14.3664301 8.40398455,14.2964313 8.64247773,14.4272004 C9.15682265,14.709257 9.69408419,14.9460059 10.2563684,15.1110871 C10.8997885,15.2999757 11.5569987,15.4371752 12.2332141,15.4761016 C12.942977,15.5169424 13.6494804,15.5076648 14.3516713,15.3981016 C15.0054716,15.2959996 15.6463342,15.1399505 16.2559059,14.8827322 C16.5937378,14.7401821 16.9233458,14.578488 17.2537561,14.41969 C17.5009747,14.3008492 17.760178,14.3632885 17.8787226,14.5799115 C17.9993231,14.8001179 17.9198421,15.0468316 17.6803962,15.1791223 C16.7265739,15.7059782 15.7093173,16.0512104 14.6279744,16.2292507 C14.0671443,16.3215843 13.5051108,16.3659593 12.9485933,16.3788694" id="Fill-13" fill-opacity="0.779173951" fill="#253533"></path>
                <path d="M17.5169435,2.02223041 C17.7667973,2.17440448 18.0018651,2.31528048 18.2344183,2.4601058 C18.3544669,2.53489306 18.4753201,2.61013024 18.5868189,2.6966155 C18.7868831,2.85173907 18.825709,3.11194473 18.6863983,3.30151242 C18.5343134,3.50842717 18.3035204,3.54432105 18.0728281,3.40684448 C17.6824566,3.17418412 17.2996289,2.92562648 16.8942199,2.72191119 C16.08652,2.31598036 15.2285778,2.05757439 14.3300494,1.93424541 C13.6925398,1.84676031 13.0544267,1.81346599 12.4110329,1.85555881 C11.423235,1.92014781 10.4726537,2.13506119 9.55833343,2.51219692 C9.00838335,2.73895828 8.48840768,3.01831068 8.00474331,3.36420174 C7.83973314,3.48218164 7.66230068,3.55286959 7.4652038,3.43863906 C7.17295324,3.26921793 7.14574492,2.88688308 7.42577437,2.68936673 C7.70243421,2.49419999 7.99735029,2.32457889 8.28497393,2.14485952 C8.34612979,2.10656604 8.41025291,2.07302176 8.49439251,2.02512992 C8.34210638,1.96678986 8.21164725,1.9166484 8.08103725,1.86675691 C7.37452616,1.59705286 6.66801508,1.32719885 5.96130282,1.05789474 C5.8492508,1.01520201 5.73815435,0.968160026 5.62313507,0.93521564 C5.285772,0.838682089 5.02203736,1.03099932 5.02550756,1.38183954 C5.02968185,1.8010681 5.04119886,2.2206966 5.06634518,2.63917529 C5.11452554,3.44158856 5.27556259,4.22290542 5.53849254,4.98362579 C5.69465121,5.43519885 5.70677174,5.89232095 5.54694171,6.34364405 C5.37675139,6.82411218 5.21868161,7.30702989 5.15767663,7.81439343 C5.12810455,8.06035152 5.11714076,8.30885918 5.10678047,8.55656697 C5.09445877,8.85026692 4.92844275,9.03318575 4.66199231,9.03263585 C4.39071378,9.03213593 4.20976084,8.84086852 4.21403572,8.54656867 C4.22570361,7.75360379 4.35455337,6.98043554 4.6456472,6.24021167 C4.78742217,5.87987307 4.79577075,5.53188237 4.66536192,5.16599472 C4.36456161,4.3216386 4.22122756,3.44433809 4.16318985,2.55353988 C4.13769148,2.16095677 4.13281309,1.76647399 4.13281309,1.37289106 C4.13281309,0.405055979 5.04859188,-0.228885998 5.96115194,0.111955923 C6.92299879,0.4712447 7.87991696,0.843731229 8.8390983,1.21016879 C9.08799661,1.30525259 9.33634169,1.40203609 9.58730199,1.49137087 C9.63497942,1.50836798 9.69910254,1.50886789 9.74688056,1.49222073 C11.1178078,1.01450213 12.5284159,0.861678171 13.9703564,0.993455716 C14.7430526,1.06409368 15.4970399,1.232415 16.2322178,1.48267235 C16.2942287,1.50376876 16.3779156,1.50256896 16.4391218,1.47952289 C17.448294,1.09873778 18.4543984,0.710103999 19.4636712,0.329768808 C19.7562738,0.219437608 20.0499829,0.0937090321 20.3548569,0.037218658 C21.0891798,-0.0988081632 21.8374841,0.507638499 21.8640889,1.24821231 C21.9001487,2.25284112 21.825263,3.25047112 21.5957273,4.23170392 C21.5150579,4.57654516 21.4034585,4.9143376 21.306444,5.25542948 C21.217074,5.569276 21.219488,5.88107287 21.3380781,6.18727069 C21.6366152,6.95823932 21.779899,7.75785307 21.786085,8.58241256 C21.7877446,8.80567452 21.6491884,8.97789517 21.4452517,9.02423728 C21.2532344,9.06797982 21.0317959,8.97919495 20.9505733,8.80802412 C20.9136082,8.73003741 20.8970619,8.63520357 20.8972128,8.54801842 C20.8983695,7.83284029 20.7421102,7.14930676 20.5012588,6.47957089 C20.3125608,5.95471032 20.3135666,5.42695025 20.4925078,4.89534084 C20.7407021,4.15801648 20.8915297,3.39974569 20.9356363,2.62297805 C20.9584692,2.22144647 20.9633979,1.81901504 20.9782342,1.41703354 C20.9922659,1.03784815 20.7079112,0.801538418 20.2993841,0.951212914 C19.6135433,1.2024701 18.934844,1.47327396 18.2533284,1.73622915 C18.013533,1.82871339 17.7741903,1.92224745 17.5169435,2.02223041" id="Fill-4" fill-opacity="0.779173951" fill="#253533"></path>
                <path d="M13.0057698,9.50780598 C13.2698544,9.50765683 13.533939,9.50706026 13.7980236,9.50775626 C14.2856448,9.50904885 14.5862972,10.0016243 14.3489296,10.4256925 C14.0748448,10.9154342 13.7912573,11.4000552 13.5035404,11.8819419 C13.3019943,12.2194564 12.713426,12.2306423 12.5089942,11.8948677 C12.2083915,11.4010495 11.9157989,10.9017128 11.639525,10.3939744 C11.4240483,9.99799507 11.724651,9.51551179 12.1752068,9.50870085 C12.4519782,9.50452479 12.7289486,9.50790541 13.0057698,9.50780598" id="Fill-16" fill-opacity="0.779173951" fill="#253533"></path>
                <path d="M15.3547755,11.2468285 C15.3549263,10.9736292 15.598917,10.7667516 15.8760193,10.810647 C16.4532864,10.9020662 17.0301013,10.99661 17.6070167,11.0902466 C18.9516787,11.3084634 20.2961398,11.52794 21.6410028,11.7448464 C22.9478302,11.9555541 24.2550596,12.1637924 25.5621382,12.3727361 C25.8941585,12.4258036 26.05841,12.6477497 25.980128,12.9400493 C25.9208387,13.1612394 25.7199584,13.2954956 25.4896344,13.259059 C24.6957602,13.1335213 23.9024388,13.0047583 23.1087656,12.8779608 C22.0435673,12.7077719 20.9780676,12.5396997 19.9131709,12.3679989 C19.3834357,12.2825768 18.855007,12.1888394 18.3253723,12.1027118 C17.6679641,11.9958713 17.009953,11.8925585 16.3520926,11.7885906 C16.148298,11.7563368 15.9436493,11.7293243 15.7401563,11.6953571 C15.5105357,11.6570558 15.3546249,11.4726047 15.3547755,11.2468285" id="Fill-10" fill-opacity="0.779173951" fill="#253533"></path>
                <path d="M10.6457403,11.2504217 C10.6448827,11.4735773 10.4826912,11.6602459 10.2567386,11.6960778 C9.66696041,11.7894624 9.07678029,11.8807305 8.4873036,11.9755766 C7.07872967,12.2022096 5.67040696,12.4301528 4.26208425,12.6581465 C3.39244033,12.7989543 2.52304764,12.9415259 1.65325298,13.0816785 C1.27133922,13.143263 0.889073739,13.202882 0.506456541,13.2596788 C0.263470755,13.2957627 0.0552546463,13.1419023 0.00832562962,12.8987393 C-0.0362418627,12.6673691 0.101078269,12.4425 0.34150155,12.3951777 C0.725173897,12.3196334 1.11206194,12.2604679 1.49809581,12.1974219 C2.35482671,12.0575717 3.2116581,11.918427 4.06884121,11.781147 C4.93441527,11.6425567 5.80069276,11.5080485 6.66631707,11.3692062 C7.82070054,11.1840496 8.9746318,10.9958187 10.128965,10.8101077 C10.4013945,10.7663132 10.646792,10.9773232 10.6457403,11.2504217" id="Fill-7" fill-opacity="0.779173951" fill="#253533"></path>
                <path d="M2.80111833,9.27791999 C3.22362836,9.3220821 3.68941529,9.37081443 4.15520222,9.4194474 C5.25604902,9.53419936 6.35674642,9.64999452 7.45779242,9.76275943 C7.66526257,9.78397115 7.81381837,9.87910102 7.87910723,10.0781534 C7.93757337,10.2563419 7.88677655,10.4127225 7.75221478,10.5422282 C7.64459524,10.6458031 7.5121749,10.6621962 7.37188603,10.647194 C6.96541186,10.6036777 6.55908709,10.5588698 6.15261292,10.5154528 C5.5392164,10.4500293 4.92572028,10.3860464 4.31242337,10.3201261 C3.7704412,10.2619056 3.22850884,10.2034367 2.68692509,10.142037 C2.4343852,10.1133738 2.27487323,9.91794779 2.2920047,9.66802697 C2.30784136,9.43797661 2.50953462,9.26833249 2.80111833,9.27791999" id="Fill-18" fill-opacity="0.779173951" fill="#253533"></path>
                <path d="M18.5628436,10.6519355 C18.3219884,10.6551548 18.1249432,10.4922561 18.1006486,10.2818597 C18.071525,10.0298099 18.2148034,9.81574837 18.4618318,9.7826139 C18.8371537,9.73234263 19.2152136,9.70222939 19.5918797,9.66161615 C20.2731742,9.58816561 20.9541701,9.51189195 21.635614,9.43948151 C22.156355,9.38405928 22.677345,9.33101442 23.1985839,9.28064409 C23.3923433,9.26192238 23.5585224,9.3266064 23.6475861,9.50436364 C23.7442169,9.69727656 23.7301778,9.85438048 23.584908,10.0062344 C23.5203381,10.073692 23.4147461,10.1275789 23.3218491,10.1388713 C22.6288055,10.22302 21.9344178,10.2959752 21.2401794,10.3703668 C20.3813052,10.4624895 19.5222318,10.5527302 18.663258,10.6436147 C18.6251732,10.6476265 18.5868395,10.6499543 18.5628436,10.6519355" id="Fill-20" fill-opacity="0.779173951" fill="#253533"></path>
                <path d="M4.9354327,15.8061674 C4.71700517,15.7890293 4.55324804,15.6689612 4.48841586,15.4651353 C4.42851215,15.2768201 4.49517345,15.0746724 4.67427487,14.9663517 C4.96810283,14.7886651 5.26823109,14.6214038 5.56708913,14.45221 C6.30823878,14.0324547 7.04984571,13.6136657 7.79196073,13.1956394 C7.92431795,13.1210864 8.05789459,13.0481606 8.19451976,12.9817951 C8.39684087,12.883442 8.67308894,12.9786421 8.78207406,13.1796202 C8.8752068,13.3513059 8.78578311,13.6602486 8.60475095,13.7607377 C7.8072034,14.2034284 7.01809014,14.6613248 6.22597915,15.1137288 C5.88682964,15.3073838 5.54889954,15.5033272 5.20761606,15.6932698 C5.12240951,15.7407682 5.02643147,15.7690943 4.9354327,15.8061674" id="Fill-22" fill-opacity="0.779173951" fill="#253533"></path>
                <path d="M21.0693483,15.8061674 C20.9782779,15.7700506 20.881579,15.743876 20.7970499,15.6962444 C19.8876139,15.1833042 18.9798512,14.6673711 18.0722914,14.1511337 C17.8463902,14.0226958 17.6222638,13.891265 17.3983909,13.7592255 C17.1817692,13.6314977 17.11874,13.3815205 17.2456097,13.1631962 C17.3624394,12.9621695 17.6468569,12.8809574 17.8477086,12.9942283 C18.387336,13.2985836 18.9260507,13.6045622 19.4653739,13.9093741 C20.0350201,14.2313313 20.6069481,14.5492812 21.1730448,14.8772749 C21.2859193,14.9426605 21.4052844,15.0277786 21.4727251,15.1347088 C21.6493895,15.4145128 21.4148173,15.786993 21.0693483,15.8061674" id="Fill-24" fill-opacity="0.779173951" fill="#253533"></path>
            </g>
        </g>
    </g>
</svg>