<?xml version="1.0" encoding="UTF-8"?>
<svg width="39px" height="25px" viewBox="0 0 39 25" version="1.1" xmlns="http://www.w3.org/2000/svg" xmlns:xlink="http://www.w3.org/1999/xlink">
    <!-- Generator: Sketch 61 (89581) - https://sketch.com -->
    <title>cat</title>
    <desc>Created with Sketch.</desc>
    <defs>
        <polygon id="path-1" points="0 0.0272950178 38.9990948 0.0272950178 38.9990948 24.5682744 0 24.5682744"></polygon>
    </defs>
    <g id="website" stroke="none" stroke-width="1" fill="none" fill-rule="evenodd">
        <g id="Artboard-Copy" transform="translate(-682.000000, -951.000000)">
            <g id="cat" transform="translate(682.000000, 951.000000)">
                <g id="Group-3">
                    <mask id="mask-2" fill="white">
                        <use xlink:href="#path-1"></use>
                    </mask>
                    <g id="Clip-2"></g>
                    <path d="M31.571013,23.7004471 C32.084953,23.6718723 32.4339162,23.1167803 32.1711,22.6997998 C32.0707712,22.5404462 31.8931967,22.4135983 31.7252779,22.3161567 C30.8831193,21.8273613 30.0322857,21.3535336 29.1848466,20.8737339 C28.3825178,20.4194853 27.5810942,19.963498 26.7783128,19.5099297 C26.4795139,19.3411267 26.0563979,19.4621539 25.8825952,19.7617357 C25.6938563,20.0870953 25.7876222,20.4596261 26.1098814,20.6499736 C26.4429279,20.8467466 26.7763515,21.0426125 27.1124153,21.2340183 C28.4625545,22.0033457 29.8129956,22.7722196 31.1659259,23.5366333 C31.2916764,23.6076168 31.4355313,23.6466236 31.571013,23.7004471 M7.44064932,23.698784 C7.57575377,23.6435998 7.71825087,23.6014936 7.84483114,23.5309637 C8.35145397,23.2485419 8.8531735,22.957351 9.35677892,22.6694108 C10.5327383,21.9969958 11.7043979,21.316341 12.8884288,20.658289 C13.1572044,20.5088383 13.2899704,20.0496004 13.1516977,19.7943926 C12.9899646,19.4957179 12.579748,19.3542046 12.279365,19.5003292 C12.0765197,19.5989803 11.8782006,19.7074587 11.6816919,19.8182805 C10.5798853,20.4395935 9.47883308,21.0621916 8.37845977,21.6861503 C7.9347499,21.9376539 7.48915416,22.186285 7.05298781,22.4504129 C6.78700329,22.6114296 6.68810774,22.911843 6.77697041,23.1917702 C6.87322573,23.4947539 7.11635338,23.6733086 7.44064932,23.698784 M27.7995545,15.9454122 C27.8359143,15.9423884 27.8939994,15.9388354 27.9517074,15.9327123 C29.2532663,15.793996 30.5549762,15.6562624 31.8563843,15.5157318 C32.9083282,15.402113 33.9604985,15.290762 35.0106319,15.1623265 C35.151394,15.1450909 35.3113921,15.0628439 35.4092315,14.9598839 C35.6293515,14.7281861 35.6506242,14.4883241 35.5042044,14.1938827 C35.3692509,13.9225732 35.1174482,13.8238465 34.8238544,13.8524213 C34.0340478,13.9293012 33.2446184,14.0102631 32.4555662,14.0948536 C31.4230091,14.2054487 30.3911309,14.3218645 29.3588002,14.4338959 C28.787982,14.4958835 28.2152025,14.5418451 27.6464965,14.6185738 C27.272187,14.6691466 27.0550845,14.9959426 27.0992141,15.3805685 C27.1360265,15.7016948 27.434599,15.9504014 27.7995545,15.9454122 M4.18479052,13.8553695 C3.74311741,13.8407042 3.43760484,14.0988601 3.41361644,14.4489392 C3.38766673,14.8292562 3.62928569,15.1267214 4.0118176,15.170264 C4.83217544,15.263699 5.65306132,15.352674 6.47402263,15.4413466 C7.40300716,15.5415852 8.33229342,15.6389512 9.26142882,15.738585 C9.87713095,15.8046548 10.4926068,15.8728413 11.1083089,15.9390622 C11.3208099,15.9618918 11.5213921,15.9369456 11.6844075,15.7793306 C11.8882335,15.5821796 11.9651774,15.344283 11.8766164,15.0731248 C11.7777209,14.7701412 11.5526977,14.6253773 11.2384346,14.5930983 C9.57063772,14.4215739 7.90336886,14.2453627 6.23587369,14.0706633 C5.53032824,13.9967316 4.82478279,13.9224976 4.18479052,13.8553695 M19.5072644,14.3136247 C19.0875429,14.3136247 18.6675952,14.3084842 18.2479491,14.3148342 C17.5648079,14.3251907 17.1090284,15.058913 17.4357383,15.6609493 C17.85463,16.4329981 18.2982644,17.1922714 18.7540439,17.9431537 C19.0640072,18.4537204 19.9564056,18.4367116 20.2619936,17.923499 C20.6982354,17.1907595 21.1282161,16.4539378 21.5437886,15.7091787 C21.9036899,15.0643558 21.447835,14.315439 20.7084946,14.3133979 C20.3080845,14.3124152 19.9076745,14.3132467 19.5072644,14.3136247 M19.5088485,24.5682744 C20.345953,24.5484686 21.1914308,24.4800553 22.0351735,24.3379373 C23.6617828,24.0637553 25.1920613,23.532022 26.6269897,22.720664 C26.9871174,22.5170118 27.1066822,22.1369972 26.925336,21.7978793 C26.7470072,21.4643554 26.3570826,21.3681234 25.9851116,21.5511382 C25.4880691,21.7957627 24.9923089,22.0447716 24.4841019,22.2642231 C23.5670362,22.6603394 22.6029743,22.9007306 21.6195255,23.057892 C20.5631309,23.2266194 19.5003244,23.2409824 18.4326899,23.1780876 C17.4154462,23.118141 16.426717,22.9068538 15.4588079,22.6158897 C14.612953,22.3616647 13.8047402,21.997147 13.0310768,21.5627798 C12.672307,21.3613954 12.263599,21.4691179 12.0729743,21.8032465 C11.8873282,22.1285306 12.0152663,22.5486104 12.3960632,22.7310205 C13.1047015,23.0705163 13.811982,23.4202931 14.5446841,23.7003715 C16.1346319,24.308153 17.7971484,24.544462 19.5088485,24.5682744 M23.0178677,16.8221597 C23.0176416,17.160824 23.251717,17.437425 23.5964559,17.4949526 C23.9019685,17.5459035 24.2092161,17.5864222 24.5151812,17.6348028 C25.5029298,17.7907547 26.4907538,17.9457239 27.477748,18.1059847 C28.2729104,18.2351761 29.0662625,18.3757066 29.8615758,18.5039153 C31.4603495,18.7614664 33.0600284,19.0135748 34.6592547,19.2688582 C35.8508292,19.4590545 37.0418756,19.6521234 38.2337518,19.8404298 C38.5795468,19.8951604 38.8811368,19.6937761 38.9701503,19.3619153 C39.0877538,18.9235415 38.8410807,18.5905468 38.3426803,18.5110212 C36.3802335,18.1976055 34.4176358,17.8851725 32.455717,17.5691866 C30.4365429,17.243827 28.4180478,16.9145364 26.3992509,16.5872113 C25.5331039,16.4468319 24.6671077,16.3050162 23.8004327,16.1678118 C23.384483,16.1019688 23.0180942,16.4123607 23.0178677,16.8221597 M15.9828614,16.8275269 C15.9844404,16.4178791 15.6160149,16.1013641 15.2070052,16.1670559 C13.4740323,16.4456224 11.7415874,16.7279687 10.0083882,17.0057036 C8.70886596,17.2139671 7.40821219,17.4157294 6.10868994,17.6236148 C4.82176538,17.8295348 3.53544429,18.0382518 2.24919865,18.2480272 C1.66955455,18.3425961 1.08870348,18.4313443 0.512680271,18.5446608 C0.151722824,18.6156442 -0.0543661509,18.9529479 0.0124694391,19.3000032 C0.0829259188,19.6647477 0.395604836,19.8955383 0.760409478,19.8414125 C1.33484855,19.7562173 1.90868414,19.6667887 2.48214255,19.574412 C3.78792592,19.3641831 5.09318124,19.1503257 6.39888917,18.939114 C8.51318704,18.5971235 10.6275603,18.2552087 12.7423108,17.9152592 C13.6273921,17.77299 14.5133785,17.6360879 15.3988369,17.4960109 C15.7380691,17.4422631 15.9816493,17.1622603 15.9828614,16.8275269 M26.2750845,3.0579498 C26.6609356,2.90676037 27.0199317,2.76532266 27.3796068,2.62539685 C28.4018292,2.22784425 29.4197518,1.81827209 30.4485371,1.43833306 C31.0612973,1.21207808 31.4877325,1.5693387 31.4667615,2.14280019 C31.4445081,2.75058169 31.4371155,3.35919473 31.4028679,3.96637147 C31.3367112,5.14096213 31.110481,6.28758275 30.7382083,7.40245359 C30.4698099,8.20640337 30.4683012,9.00445676 30.751334,9.79812566 C31.1125932,10.8107924 31.3469704,11.8444746 31.3452354,12.9259325 C31.3450091,13.0577697 31.3698273,13.2010973 31.4252721,13.3191006 C31.5471,13.5779369 31.8792412,13.7121931 32.1672528,13.6460478 C32.4731426,13.5758959 32.6809665,13.3155477 32.6784772,12.9778661 C32.6691986,11.7310825 32.4542838,10.521945 32.006425,9.35612337 C31.8286242,8.89310574 31.8250033,8.42162152 31.9590516,7.94696231 C32.1045662,7.43117958 32.2719569,6.92046169 32.3929549,6.39893376 C32.7372412,4.91523632 32.8495642,3.40659262 32.7954017,1.88751685 C32.755572,0.767581163 31.6331716,-0.149382714 30.5317422,0.0563105022 C30.074454,0.141732529 29.6339124,0.331853233 29.1950304,0.498615172 C27.6811967,1.07381535 26.1721155,1.66148865 24.6584327,2.23721799 C24.5665526,2.27214275 24.4411039,2.27395702 24.3480923,2.24198046 C23.2453805,1.86362892 22.1144559,1.60910152 20.9554694,1.50228619 C18.7925913,1.30294293 16.6768602,1.53403596 14.620572,2.25649464 C14.5489085,2.28166768 14.4527286,2.28091174 14.3812161,2.25520953 C14.0047944,2.12004619 13.6322954,1.97369482 13.2589665,1.82998927 C11.8202663,1.27580442 10.3849607,0.712623806 8.94218704,0.169324599 C7.57349072,-0.346080159 6.1998911,0.612536405 6.1998911,2.07597447 C6.1998911,2.67120724 6.20720832,3.26772513 6.24545397,3.86137041 C6.33250619,5.20831702 6.54749652,6.53492865 6.99867447,7.81172337 C7.19427795,8.36507667 7.18175571,8.89129147 6.96910387,9.43617817 C6.53248491,10.5554335 6.33921992,11.7246569 6.32171896,12.9236647 C6.31530696,13.3687664 6.58672282,13.6579161 6.99362031,13.6587477 C7.39327602,13.6595792 7.64228762,13.3829782 7.66076925,12.9388592 C7.6763089,12.5642874 7.69275377,12.1885061 7.73710967,11.8165801 C7.82861257,11.0493694 8.06570542,10.3190488 8.32097814,9.59258363 C8.56071122,8.91011456 8.54253133,8.2188009 8.30830503,7.53602944 C7.91392979,6.38570469 7.67238627,5.20423491 7.60004391,3.99078856 C7.56232631,3.35806081 7.54512708,2.72351878 7.53886596,2.08958152 C7.53366093,1.55905781 7.92924313,1.26816936 8.43526248,1.41421834 C8.60778279,1.46403526 8.77441915,1.53516989 8.94248878,1.59972777 C10.0025043,2.0068809 11.062218,2.41494116 12.1219317,2.82285024 C12.3177615,2.89821817 12.5135159,2.97411526 12.7419337,3.0622587 C12.6157306,3.13467843 12.5195507,3.18547808 12.427746,3.24330804 C11.9964075,3.51514663 11.5539801,3.77163949 11.1390865,4.06676125 C10.7190632,4.36543596 10.7598737,4.94350874 11.1982277,5.19969922 C11.4938582,5.37243315 11.7599936,5.26561781 12.0074965,5.08721429 C12.7329569,4.56409887 13.5128814,4.14175121 14.3377654,3.79877799 C15.7091774,3.22856707 17.1349781,2.9035098 18.6165255,2.80584143 C19.5815681,2.74226627 20.5387654,2.79261235 21.494982,2.9249031 C22.8427074,3.11131967 24.1295565,3.50214433 25.3410458,4.11589781 C25.949129,4.42394627 26.5233418,4.79987878 27.1088698,5.15162099 C27.4548911,5.35950645 27.8009878,5.30522944 28.0291793,4.99241852 C28.2381348,4.70568777 28.1798988,4.31221729 27.8798176,4.07764689 C27.7125778,3.94694363 27.531307,3.83317359 27.3512431,3.7200083 C27.0024308,3.50108601 26.6498466,3.28806011 26.2750845,3.0579498" id="Fill-1" fill="#FFFFFF" mask="url(#mask-2)"></path>
                </g>
                <path d="M19.42289,24.568304 C17.7161795,24.5451102 16.0583611,24.314939 14.4729782,23.7229441 C13.7423797,23.4500668 13.03713,23.1094488 12.3305262,22.7786974 C11.9508226,22.6010252 11.8233271,22.1919302 12.0084401,21.8750951 C12.1984423,21.5496451 12.6059768,21.444647 12.9637166,21.6408006 C13.735234,22.0638855 14.5411263,22.4190089 15.3845527,22.6666306 C16.3496828,22.9499636 17.335498,23.1557628 18.3498211,23.2141524 C19.4144655,23.2754135 20.4742206,23.2614972 21.527507,23.0971524 C22.5082074,22.9439994 23.4695013,22.7099258 24.3838589,22.3240982 C24.8906067,22.1102732 25.3850187,21.867732 25.8806342,21.629535 C26.251462,21.4512738 26.6402671,21.5449327 26.8180839,21.8698673 C26.9989847,22.2001769 26.8797631,22.5702474 26.5205942,22.7686835 C25.0898608,23.5589673 23.5639759,24.0768157 21.9419616,24.3438761 C21.1007165,24.4823764 20.2576662,24.548939 19.42289,24.568304" id="Fill-13" fill-opacity="0.779173951" fill="#253533"></path>
                <path d="M26.2754152,3.03334562 C26.650196,3.26160672 27.0027977,3.47292072 27.3516275,3.6901587 C27.5317003,3.80233958 27.7129802,3.91519535 27.8802284,4.04492325 C28.1803246,4.2776086 28.2385635,4.66791709 28.0295975,4.95226864 C27.8014701,5.26264075 27.4552807,5.31648158 27.1092421,5.11026671 C26.5236848,4.76127618 25.9494434,4.38843971 25.3413299,4.08286678 C24.12978,3.47397054 22.8428667,3.08636159 21.4950741,2.90136811 C20.5388097,2.77014047 19.5816401,2.72019898 18.6165493,2.78333822 C17.1348525,2.88022171 15.7089806,3.20259178 14.3375001,3.76829539 C13.512575,4.10843743 12.7326115,4.52746602 12.007115,5.04630261 C11.7595997,5.22327246 11.493451,5.32930439 11.1978057,5.15795859 C10.7594299,4.90382689 10.7186174,4.33032462 11.1386616,4.0340501 C11.5536513,3.74129999 11.9960254,3.48686834 12.4274609,3.21728928 C12.5191947,3.15984906 12.6153794,3.10953264 12.7415888,3.03769488 C12.5131596,2.95018479 12.3174709,2.87497261 12.1215559,2.80013536 C11.0617892,2.3955793 10.0020226,1.99079827 8.94195422,1.5868421 C8.7738762,1.52280302 8.60723152,1.45224004 8.4347026,1.40282346 C7.928658,1.25802313 7.53305605,1.54649898 7.53826133,2.0727593 C7.54452277,2.70160215 7.56179829,3.33104489 7.59951778,3.95876293 C7.67178831,5.16238283 7.91334389,6.33435813 8.30773882,7.47543869 C8.54197681,8.15279827 8.5601576,8.83848143 8.32041256,9.51546607 C8.06512709,10.2361683 7.82802241,10.9605448 7.73651494,11.7215902 C7.69215683,12.0905273 7.67571114,12.4632888 7.66017071,12.8348505 C7.64168816,13.2754004 7.39266412,13.5497786 6.99298847,13.5489538 C6.58607067,13.5482039 6.31464126,13.2613028 6.32105357,12.819853 C6.33855542,11.6304057 6.53183005,10.4706533 6.9684708,9.36031751 C7.18113326,8.81980961 7.19365613,8.29782356 6.99804288,7.74899208 C6.54684241,6.48245789 6.33184135,5.16650713 6.24478478,3.83030982 C6.20653722,3.24143516 6.19921964,2.64971099 6.19921964,2.05933659 C6.19921964,0.607583968 7.57288782,-0.343328997 8.94172791,0.167933884 C10.3844982,0.70686705 11.8198754,1.26559684 13.2586475,1.81525318 C13.6319949,1.95787888 14.0045125,2.10305414 14.380953,2.23705631 C14.4524691,2.26255196 14.5486538,2.26330184 14.6203208,2.23833109 C16.6767117,1.52175319 18.7926239,1.29251726 20.9555345,1.49018357 C22.1145789,1.59614052 23.2455599,1.8486225 24.3483267,2.22400853 C24.441343,2.25565314 24.5668734,2.25385345 24.6586826,2.21928434 C26.172441,1.64810666 27.6815976,1.065156 29.1955068,0.494653211 C29.6344107,0.329156412 30.0749743,0.140563548 30.5322853,0.055827987 C31.6337697,-0.148212245 32.7562261,0.761457748 32.7961333,1.87231846 C32.8502231,3.37926168 32.7378944,4.87570668 32.393591,6.34755588 C32.2725869,6.86481774 32.1051878,7.3715064 31.959666,7.88314422 C31.825611,8.353914 31.8292321,8.8216093 32.0071171,9.28090604 C32.4549229,10.437359 32.6698485,11.6367796 32.6791275,12.8736188 C32.681617,13.2085118 32.4737826,13.4668428 32.1678776,13.5363559 C31.8798516,13.6019697 31.5476938,13.4687924 31.4258599,13.2120362 C31.3704122,13.0950561 31.3455928,12.9528054 31.3458191,12.8220276 C31.3475542,11.7492604 31.1131654,10.7239601 30.7518881,9.71935633 C30.4688411,8.93206548 30.4703499,8.14042538 30.7387618,7.34301126 C31.1110531,6.23702472 31.3372945,5.09961853 31.4034545,3.93446707 C31.4377038,3.3321697 31.4450968,2.72852256 31.4673513,2.12555031 C31.4883988,1.55677223 31.0618669,1.20230763 30.4490761,1.42681937 C29.4203149,1.80370515 28.402266,2.20991093 27.3799926,2.60434372 C27.0202996,2.74307008 26.6612855,2.88337118 26.2754152,3.03334562" id="Fill-4" fill-opacity="0.779173951" fill="#253533"></path>
                <path d="M19.5086547,14.261709 C19.9047816,14.2614853 20.3009085,14.2605904 20.6970354,14.2616344 C21.4284672,14.2635733 21.8794458,15.0024364 21.5233943,15.6385388 C21.1122671,16.3731512 20.686886,17.1000828 20.2553106,17.8229128 C19.9529915,18.3291847 19.0701389,18.3459634 18.7634913,17.8423016 C18.3125873,17.1015742 17.8736984,16.3525693 17.4592875,15.5909616 C17.1360725,14.9969926 17.5869765,14.2732677 18.2628102,14.2630513 C18.6779673,14.2567872 19.093423,14.2618581 19.5086547,14.261709" id="Fill-16" fill-opacity="0.779173951" fill="#253533"></path>
                <path d="M23.0321632,16.8702427 C23.0323895,16.4604438 23.3983755,16.1501275 23.814029,16.2159705 C24.6799296,16.3530993 25.545152,16.494915 26.410525,16.6353699 C28.4275181,16.962695 30.4442097,17.29191 32.4615042,17.6172697 C34.4217453,17.9333312 36.3825894,18.2456885 38.3432073,18.5591042 C38.8412377,18.6387054 39.0876151,18.9716246 38.970192,19.4100739 C38.881258,19.7418591 38.5799376,19.9432434 38.2344516,19.8885884 C37.0436403,19.700282 35.8536581,19.5071375 34.6631484,19.3169412 C33.065351,19.0616579 31.4671015,18.8095495 29.8697563,18.5519983 C29.0751536,18.4238653 28.2825104,18.2832591 27.4880585,18.1540677 C26.5019462,17.9938069 25.5149295,17.8388378 24.5281389,17.6828859 C24.2224471,17.6345053 23.915474,17.5939865 23.6102344,17.5430357 C23.2658036,17.4855837 23.0319373,17.208907 23.0321632,16.8702427" id="Fill-10" fill-opacity="0.779173951" fill="#253533"></path>
                <path d="M15.9686104,16.8756326 C15.9673241,17.210366 15.7240368,17.4903688 15.3851078,17.5441167 C14.5004406,17.6841937 13.6151704,17.8210957 12.7309554,17.963365 C10.6180945,18.3033144 8.50561044,18.6452293 6.39312638,18.9872198 C5.0886605,19.1984314 3.78457146,19.4122888 2.47987948,19.6225177 C1.90700883,19.7148945 1.33361061,19.804323 0.759684812,19.8895183 C0.395206132,19.9436441 0.0828819695,19.7128534 0.0124884444,19.3481089 C-0.054362794,19.0010536 0.151617403,18.66375 0.512252325,18.5927665 C1.08776084,18.4794501 1.6680929,18.3907019 2.24714371,18.2961329 C3.53224007,18.0863576 4.81748716,17.8776405 6.10326182,17.6717205 C7.40162291,17.4638351 8.70103915,17.2620728 9.9994756,17.0538094 C11.7310508,16.7760744 13.4619477,16.4937281 15.1934475,16.2151616 C15.6020917,16.1494698 15.9701881,16.4659849 15.9686104,16.8756326" id="Fill-7" fill-opacity="0.779173951" fill="#253533"></path>
                <path d="M4.2016775,13.91688 C4.83544255,13.9831232 5.53412294,14.0562216 6.23280334,14.1291711 C7.88407353,14.301299 9.53511962,14.4749918 11.1866886,14.6441391 C11.4978939,14.6759567 11.7207276,14.8186515 11.8186608,15.1172302 C11.9063601,15.3845128 11.8301648,15.6190837 11.6283222,15.8133424 C11.4668929,15.9687046 11.2682623,15.9932943 11.057829,15.970791 C10.4481178,15.9055165 9.83863063,15.8383046 9.22891937,15.7731792 C8.3088246,15.6750439 7.38858042,15.5790695 6.46863505,15.4801891 C5.65566181,15.3928584 4.84276326,15.3051551 4.03038763,15.2130555 C3.65157781,15.1700608 3.41230984,14.8769217 3.43800705,14.5020404 C3.46176204,14.1569649 3.76430193,13.9024987 4.2016775,13.91688" id="Fill-18" fill-opacity="0.779173951" fill="#253533"></path>
                <path d="M27.8442654,15.9779032 C27.4829827,15.9827322 27.1874148,15.7383841 27.1509729,15.4227895 C27.1072874,15.0447148 27.3222051,14.7236226 27.6927477,14.6739209 C28.2557305,14.5985139 28.8228205,14.5533441 29.3878195,14.4924242 C30.4097614,14.3822484 31.4312551,14.2678379 32.453421,14.1592223 C33.2345325,14.0760889 34.0160175,13.9965216 34.7978758,13.9209661 C35.088515,13.8928836 35.3377837,13.9899096 35.4713791,14.2565455 C35.6163254,14.5459148 35.5952667,14.7815707 35.377362,15.0093516 C35.2805071,15.110538 35.1221192,15.1913683 34.9827737,15.208307 C33.9432083,15.33453 32.9016267,15.4439629 31.8602691,15.5555502 C30.5719577,15.6937343 29.2833477,15.8290953 27.994887,15.9654221 C27.9377599,15.9714398 27.8802593,15.9749315 27.8442654,15.9779032" id="Fill-20" fill-opacity="0.779173951" fill="#253533"></path>
                <path d="M7.40314905,23.7092511 C7.07550776,23.683544 6.82987205,23.5034418 6.73262379,23.197703 C6.64276822,22.9152301 6.74276017,22.6120086 7.01141231,22.4495276 C7.45215425,22.1829977 7.90234664,21.9321057 8.3506337,21.678315 C9.46235817,21.0486821 10.5747686,20.4204985 11.6879411,19.7934592 C11.8864769,19.6816295 12.0868419,19.5722409 12.2917796,19.4726927 C12.5952613,19.325163 13.0096334,19.4679632 13.1731111,19.7694303 C13.3128102,20.0269589 13.1786747,20.490373 12.9071264,20.6411065 C11.7108051,21.3051427 10.5271352,21.9919872 9.33896872,22.6705933 C8.83024446,22.9610757 8.32334931,23.2549909 7.81142409,23.5399047 C7.68361426,23.6111522 7.5396472,23.6536414 7.40314905,23.7092511" id="Fill-22" fill-opacity="0.779173951" fill="#253533"></path>
                <path d="M31.6040224,23.7092511 C31.4674169,23.6550758 31.3223685,23.615814 31.1955749,23.5443666 C29.8314208,22.7749563 28.4697768,22.0010567 27.1084371,21.2267006 C26.7695853,21.0340436 26.4333957,20.8368975 26.0975864,20.6388382 C25.7726538,20.4472465 25.67811,20.0722807 25.8684146,19.7447944 C26.0436592,19.4432543 26.4702853,19.3214361 26.7715629,19.4913424 C27.5810041,19.9478755 28.3890761,20.4068433 29.1980609,20.8640612 C30.0525302,21.346997 30.9104222,21.8239219 31.7595672,22.3159123 C31.928879,22.4139908 32.1079265,22.5416679 32.2090877,22.7020631 C32.4740842,23.1217692 32.122226,23.6804895 31.6040224,23.7092511" id="Fill-24" fill-opacity="0.779173951" fill="#253533"></path>
            </g>
        </g>
    </g>
</svg>