<?xml version="1.0" encoding="UTF-8"?>
<svg width="30px" height="20px" viewBox="0 0 30 20" version="1.1" xmlns="http://www.w3.org/2000/svg" xmlns:xlink="http://www.w3.org/1999/xlink">
    <!-- Generator: Sketch 61 (89581) - https://sketch.com -->
    <title>cat</title>
    <desc>Created with Sketch.</desc>
    <g id="website" stroke="none" stroke-width="1" fill="none" fill-rule="evenodd" fill-opacity="0.779173951">
        <g id="Artboard-Copy" transform="translate(-669.000000, -963.000000)" fill="#253533">
            <g id="footer" transform="translate(622.000000, 950.000000)">
                <g id="cat" transform="translate(47.149999, 13.800000)">
                    <path d="M14.5186108,18.3648079 C13.2428446,18.3474705 12.0036253,18.1754175 10.8185516,17.7329013 C10.2724292,17.5289255 9.74525498,17.2743135 9.21706868,17.0270769 C8.93324023,16.8942669 8.8379373,16.5884684 8.97630929,16.3516341 C9.11833596,16.1083603 9.422968,16.0298742 9.69037848,16.176499 C10.2670878,16.492755 10.8694923,16.7582097 11.4999535,16.943307 C12.2213883,17.1550984 12.9582852,17.3089333 13.7164918,17.3525795 C14.5123134,17.3983722 15.3044804,17.3879698 16.091812,17.265122 C16.8248856,17.1506402 17.5434528,16.9756701 18.2269351,16.687264 C18.6057292,16.5274298 18.9753021,16.3461302 19.3457747,16.168078 C19.6229685,16.0348277 19.9136003,16.1048378 20.0465184,16.3477263 C20.1817417,16.5946328 20.0926236,16.8712605 19.8241449,17.0195915 C18.7546716,17.6103287 17.6140726,17.9974203 16.4016168,18.197048 C15.7727861,18.300577 15.142606,18.3503325 14.5186108,18.3648079" id="Fill-13"></path>
                    <path d="M19.6408735,2.26742593 C19.9210222,2.43805111 20.184592,2.59600832 20.4453423,2.75839372 C20.5799467,2.84224894 20.7154534,2.92660863 20.8404714,3.02358023 C21.0647933,3.19751254 21.1083269,3.48926814 20.9521249,3.70182093 C20.7815996,3.9338241 20.522823,3.97407011 20.2641592,3.8199245 C19.8264551,3.55905407 19.3972096,3.2803588 18.9426447,3.05194302 C18.0370112,2.59679307 17.0750434,2.30705536 16.0675684,2.16877274 C15.3527608,2.07068007 14.6372764,2.03334881 13.9158711,2.08054539 C12.8083027,2.1529658 11.7424634,2.39393744 10.7172817,2.8168009 C10.1006502,3.07105708 9.51762744,3.38428097 8.97531874,3.77211133 C8.79030108,3.9043963 8.59135493,3.98365517 8.37036005,3.85557418 C8.0426741,3.66561073 8.01216676,3.23691776 8.3261498,3.01545255 C8.63635466,2.79662183 8.96702932,2.60643417 9.28952734,2.40492382 C9.35809835,2.36198726 9.4299964,2.32437573 9.52433793,2.270677 C9.35358709,2.20526321 9.2073098,2.1490421 9.06086333,2.09310125 C8.26868774,1.79069558 7.47651216,1.48812176 6.68411101,1.18616451 C6.55847269,1.13829529 6.43390578,1.08554947 6.30494041,1.04861057 C5.92667206,0.940372325 5.63095959,1.15600803 5.63485054,1.54938763 C5.63953096,2.01944768 5.65244442,2.48995614 5.68063973,2.95917539 C5.73466196,3.8588813 5.91522476,4.73493286 6.21003498,5.58789061 C6.38512789,6.09421692 6.39871803,6.6067651 6.2195086,7.11281113 C6.02868271,7.65153604 5.85144695,8.19300754 5.78304512,8.76188894 C5.74988743,9.03766945 5.73759427,9.31630867 5.7259778,9.59405104 C5.7121621,9.92336213 5.52601662,10.1284599 5.22725906,10.1278433 C4.923088,10.1272828 4.72019451,9.91282417 4.72498771,9.58284045 C4.73807034,8.69372855 4.88254313,7.82681362 5.2089321,6.99683758 C5.36789729,6.59280791 5.37725814,6.20262332 5.23103723,5.79237178 C4.89376487,4.84563744 4.73305157,3.86196421 4.66797678,2.86315669 C4.63938673,2.42297287 4.63391684,1.98065903 4.63391684,1.53935415 C4.63391684,0.454169032 5.66073384,-0.256638434 6.68394184,0.125530583 C7.76241266,0.528383138 8.8353572,0.946033673 9.91083931,1.3569018 C10.1899165,1.46351451 10.4683735,1.57203302 10.7497627,1.67219965 C10.803221,1.69125765 10.8751191,1.69181818 10.9286902,1.67315255 C12.4658424,1.13751055 14.0474868,0.966156682 15.6642626,1.11391226 C16.5306483,1.19311508 17.3760566,1.38184536 18.2003749,1.66244643 C18.2699045,1.68610078 18.3637385,1.68475551 18.4323659,1.6589151 C19.5639003,1.23195977 20.6919949,0.796204136 21.8236421,0.369753288 C22.1517228,0.246044426 22.481044,0.105071256 22.8228841,0.0417314217 C23.6462437,-0.110788657 24.4852799,0.569189686 24.5151105,1.3995581 C24.5555426,2.52599819 24.4715769,3.64459087 24.2142101,4.74479818 C24.1237595,5.13145144 23.9986287,5.51020122 23.8898512,5.89265051 C23.789645,6.24455093 23.7923518,6.59415318 23.9253209,6.9374775 C24.2600557,7.80192611 24.4207126,8.69849305 24.4276486,9.62303042 C24.4295095,9.87336289 24.2741533,10.0664653 24.0454893,10.1184264 C23.8301899,10.1674727 23.5819019,10.0679227 23.4908311,9.87599738 C23.449384,9.78855478 23.4308314,9.68222233 23.4310006,9.58446599 C23.4322976,8.78257248 23.2570919,8.01616048 22.9870372,7.26521911 C22.7754595,6.67671918 22.7765873,6.08496818 22.9772252,5.4889011 C23.255513,4.66217613 23.4246285,3.81196498 23.4740831,2.94101424 C23.4996844,2.49079694 23.5052107,2.03957068 23.5218459,1.58884891 C23.5375789,1.16368728 23.2187463,0.898724983 22.7606852,1.06654752 C21.9916861,1.34826965 21.2306946,1.65190848 20.4665451,1.946747 C20.1976746,2.05044496 19.9293116,2.15532003 19.6408735,2.26742593" id="Fill-4"></path>
                    <path d="M14.5827199,10.6606278 C14.8788248,10.6604606 15.1749296,10.6597917 15.4710345,10.6605721 C16.0177798,10.6620214 16.3548863,11.2143216 16.0887378,11.6898081 C15.7814202,12.238931 15.4634478,12.7823123 15.1408452,13.3226278 C14.9148616,13.701066 14.2549293,13.7136081 14.0257103,13.3371209 C13.6886595,12.7834272 13.36059,12.2235459 13.0508179,11.6542442 C12.8092146,11.2102524 13.1462654,10.669268 13.6514511,10.6616312 C13.9617811,10.6569488 14.2723341,10.6607393 14.5827199,10.6606278" id="Fill-16"></path>
                    <path d="M17.2165426,12.6105069 C17.2167117,12.3041821 17.4902863,12.0722207 17.8009873,12.1214383 C18.448248,12.2239421 19.0950017,12.3299494 19.7418681,12.4349395 C21.2495705,12.679615 22.7570475,12.9257032 24.2649752,13.1689095 C25.7302555,13.4051655 27.1959865,13.6386526 28.6615484,13.8729309 C29.0338262,13.9324328 29.2179933,14.1812898 29.1302195,14.5090307 C29.0637414,14.7570402 28.8385043,14.907575 28.5802535,14.8667204 C27.6901221,14.7259613 26.8006104,14.5815858 25.9107043,14.4394141 C24.7163507,14.2485897 23.5216591,14.0601387 22.3276436,13.8676192 C21.7336781,13.7718398 21.1411773,13.6667366 20.5473244,13.5701661 C19.8102054,13.4503712 19.0724104,13.3345317 18.3347844,13.2179577 C18.1062798,13.1817931 17.8768174,13.1515054 17.6486508,13.1134196 C17.3911888,13.0704743 17.2163737,12.8636584 17.2165426,12.6105069" id="Fill-10"></path>
                    <path d="M11.9365367,12.6145358 C11.9355752,12.864749 11.7537179,13.0740511 11.5003685,13.1142277 C10.8390797,13.2189352 10.1773402,13.3212695 9.51638949,13.4276158 C7.93702591,13.681728 6.35794402,13.9373094 4.77886213,14.1929473 C3.80377385,14.350828 2.82896726,14.5106864 1.85370997,14.6678325 C1.42548915,14.7368841 0.996873964,14.803732 0.567864417,14.8674154 C0.295416594,14.9078745 0.0619542743,14.7353584 0.00933511254,14.4627119 C-0.0406361899,14.203288 0.113334013,13.9511536 0.382908626,13.8980935 C0.813101259,13.8133894 1.24689949,13.7470501 1.67973998,13.6763598 C2.64034954,13.5195527 3.60107177,13.3635368 4.56218837,13.2096116 C5.53271331,13.0542172 6.50402699,12.9033999 7.47460827,12.7477229 C8.76896078,12.540116 10.0628062,12.3290622 11.3571024,12.1208337 C11.662564,12.0717291 11.937716,12.3083241 11.9365367,12.6145358" id="Fill-7"></path>
                    <path d="M3.14075404,10.4028681 C3.61449343,10.4523849 4.13675704,10.507026 4.65902065,10.5615558 C5.89334517,10.6902214 7.12750216,10.8200567 8.36205003,10.9464944 C8.59467595,10.970278 8.76124415,11.0769424 8.83444928,11.3001299 C8.90000445,11.4999237 8.84304851,11.6752655 8.69217112,11.8204738 C8.5715027,11.9366071 8.42302639,11.9549879 8.26572749,11.9381667 C7.80996831,11.889374 7.35437665,11.8391331 6.89861747,11.7904518 C6.2108466,11.7170957 5.52296405,11.6453549 4.83530486,11.5714418 C4.22760734,11.5061621 3.61996566,11.4406038 3.01271486,11.3717594 C2.7295545,11.3396208 2.55070169,11.1204993 2.56991036,10.8402756 C2.58766721,10.5823316 2.81381579,10.3921182 3.14075404,10.4028681" id="Fill-18"></path>
                    <path d="M20.8135891,11.9434831 C20.5435302,11.9470928 20.3225933,11.7644425 20.295353,11.5285355 C20.262698,11.2459247 20.423349,11.0059082 20.7003296,10.9687562 C21.1211593,10.9123895 21.545059,10.8786251 21.9673958,10.8330875 C22.7312974,10.7507311 23.494864,10.6652092 24.258933,10.584019 C24.8428139,10.5218768 25.4269739,10.4624003 26.011413,10.4059225 C26.2286659,10.3849308 26.4149942,10.4574578 26.5148568,10.6567681 C26.6232041,10.8730717 26.6074628,11.0492245 26.444579,11.2194907 C26.37218,11.2951276 26.253785,11.3555482 26.1496242,11.3682099 C25.3725491,11.4625615 24.5939668,11.5443626 23.8155519,11.6277742 C22.8525392,11.7310668 21.8893032,11.8322491 20.9261788,11.9341534 C20.8834762,11.9386516 20.8404945,11.9412617 20.8135891,11.9434831" id="Fill-20"></path>
                    <path d="M5.5338541,17.7226658 C5.28894223,17.7034498 5.10532954,17.5688234 5.03263646,17.3402836 C4.96546942,17.1291351 5.0402134,16.902477 5.24103088,16.7810224 C5.57048549,16.5817914 5.90700432,16.3942496 6.2420989,16.204541 C7.07311298,15.7338904 7.90463977,15.2643231 8.73673627,14.7956112 C8.88514181,14.7120186 9.03491462,14.6302506 9.1881056,14.5558383 C9.41495814,14.4455598 9.72470131,14.552303 9.84690088,14.7776496 C9.95132597,14.9701523 9.85105965,15.3165543 9.64807733,15.4292276 C8.75382712,15.9255947 7.86903384,16.439011 6.98087936,16.946269 C6.60060796,17.1634047 6.22170382,17.3831063 5.8390397,17.5960794 C5.74350186,17.6493369 5.63588647,17.6810976 5.5338541,17.7226658" id="Fill-22"></path>
                    <path d="M23.6240076,17.7226658 C23.5218949,17.6821698 23.4134713,17.6528216 23.318693,17.5994146 C22.2989878,17.0242804 21.2811589,16.4457904 20.2635574,15.8669592 C20.0102657,15.7229482 19.758964,15.5755814 19.5079465,15.4275321 C19.2650594,15.2843173 19.1943879,15.0040303 19.3366406,14.7592343 C19.4676359,14.5338331 19.7865389,14.4427739 20.011744,14.569779 C20.6168012,14.9110374 21.2208351,15.2541159 21.8255513,15.5958863 C22.4642671,15.9568808 23.1055414,16.3133822 23.7402773,16.681145 C23.8668378,16.7544587 24.0006759,16.8498973 24.0762939,16.9697928 C24.2743788,17.2835231 24.0113648,17.7011665 23.6240076,17.7226658" id="Fill-24"></path>
                </g>
            </g>
        </g>
    </g>
</svg>