<?xml version="1.0" encoding="UTF-8"?>
<svg width="18px" height="19px" viewBox="0 0 18 19" version="1.1" xmlns="http://www.w3.org/2000/svg" xmlns:xlink="http://www.w3.org/1999/xlink">
    <!-- Generator: Sketch 61 (89581) - https://sketch.com -->
    <title>rugby</title>
    <desc>Created with Sketch.</desc>
    <g id="website" stroke="none" stroke-width="1" fill="none" fill-rule="evenodd" fill-opacity="0.779173951">
        <g id="Artboard-Copy" transform="translate(-622.000000, -963.000000)" fill="#253533">
            <g id="footer" transform="translate(622.000000, 950.000000)">
                <path d="M1.54044503,28.1749377 C4.19638799,22.2859837 8.43824641,17.9935502 14.3526968,15.3536215 C14.23489,15.2766304 14.1252218,15.2223797 14.0100601,15.2052479 C13.8095444,15.1753692 13.6059767,15.1612967 13.4031211,15.1529347 C12.2218995,15.1038848 11.0824901,15.3172164 9.96413941,15.6868758 C8.54211579,16.1567766 7.25081905,16.8620356 6.08048282,17.7931693 C4.96477721,18.6807597 4.02293326,19.7191711 3.24589674,20.9211503 C2.39785061,22.2329567 1.86375245,23.6623402 1.52335389,25.172182 C1.4441039,25.5237917 1.43372713,25.8918195 1.40473323,26.2534228 C1.37248388,26.6557142 1.33972586,27.0591273 1.33724854,27.4621324 C1.33606347,27.68403 1.39679806,27.9061316 1.42965782,28.1281311 C1.46658689,28.1437333 1.50351596,28.1593355 1.54044503,28.1749377 Z M14.7419272,16.685415 C13.5066853,17.211198 12.3497778,17.8853547 11.2227799,18.6128443 C7.87830808,20.771451 5.38483269,23.7006828 3.50877477,27.1818032 C3.25617177,27.6503783 3.05301101,28.1457728 2.82696032,28.6287264 C2.83779171,28.6378423 2.69932633,29.0490444 2.82696032,29.4138497 C2.95347046,29.7754428 3.34612038,30.0906223 3.34986785,30.1096073 C3.90207448,30.131124 4.46292841,30.2240232 5.00435134,30.1574335 C5.83937565,30.0548467 6.67094105,29.8812853 7.4860257,29.6688713 C8.86827173,29.3087976 10.1221307,28.646674 11.2553344,27.7925314 C11.9324691,27.2819426 12.5267932,26.6582636 13.139531,26.0658908 C13.8142241,25.4139647 14.3221769,24.629471 14.7859776,23.8229508 C15.4907837,22.5977212 15.9856129,21.2918294 16.2217351,19.8889594 C16.3634492,19.0472578 16.404651,18.2099411 16.2789091,17.366302 C16.2739109,17.3327525 16.0469507,16.8233084 15.7192166,16.685415 C15.2998298,16.5089588 14.7564893,16.6992676 14.7419272,16.685415 Z M1.86385418,30.9760888 C0.948359077,30.5405536 0.460854627,29.7713562 0.234193543,28.8283934 C-0.16164949,27.182415 -0.029498346,25.5357228 0.434098853,23.9335937 C1.23229583,21.1748641 2.72024243,18.8355577 4.93334172,16.986955 C6.42393337,15.7420443 8.10120504,14.8307957 9.97146418,14.2855354 C11.1082285,13.9541167 12.2648308,13.7482292 13.4505287,13.8113517 C14.4564644,13.8649905 15.4295404,14.0586411 16.2638526,14.6900702 C16.8346764,15.1219343 17.1801616,15.702478 17.3913592,16.3680688 C17.7272815,17.4264672 17.752613,18.5047508 17.6107973,19.6028176 C17.416589,21.1049093 16.9614356,22.5165491 16.2813507,23.8648625 C15.8527496,24.7146202 15.3447968,25.5075777 14.7526091,26.252913 C13.4859318,27.847394 11.9553591,29.1141274 10.1469536,30.0484223 C9.21192574,30.5314778 8.23274579,30.9049103 7.21419517,31.154851 C6.36096065,31.3641037 5.49236445,31.5187997 4.69213282,31.4885132 C3.65516853,31.5107437 2.73316251,31.3895974 1.86385418,30.9760888 Z" id="rugby"></path>
            </g>
        </g>
    </g>
</svg>