<?xml version="1.0" encoding="UTF-8"?>
<svg width="25px" height="17px" viewBox="0 0 25 17" version="1.1" xmlns="http://www.w3.org/2000/svg" xmlns:xlink="http://www.w3.org/1999/xlink">
    <!-- Generator: Sketch 61 (89581) - https://sketch.com -->
    <title>shoe</title>
    <desc>Created with Sketch.</desc>
    <g id="website" stroke="none" stroke-width="1" fill="none" fill-rule="evenodd">
        <g id="Artboard-Copy" transform="translate(-780.000000, -965.000000)" fill="#4F5B5A">
            <g id="footer" transform="translate(622.000000, 950.000000)">
                <path d="M178.029497,31.073911 L178.035914,30.9914453 C177.79753,30.9449398 177.557952,30.903669 177.320837,30.8510943 C175.629989,30.476471 174.07016,29.7618947 172.553158,28.9399689 C170.63676,27.901675 168.826236,26.6878285 167.043019,25.4349114 C165.878109,24.6163995 164.635453,24.0092487 163.277075,23.5954788 C161.79902,23.1452176 160.313728,22.6684794 159.208133,21.4635851 C158.674362,22.3872464 158.808812,23.1204855 159.409958,23.6176315 C159.819053,23.9559912 160.274258,24.2538388 160.746773,24.4922079 C161.91422,25.0813027 163.165232,25.4500845 164.419975,25.7874579 C165.831178,26.1669367 167.164039,26.7131676 168.452432,27.4166675 C169.961301,28.2405658 171.509566,28.9927712 173.060442,29.7333693 C174.202521,30.2787657 175.377056,30.7609662 176.630307,30.979231 C177.088571,31.0591173 177.562653,31.0450822 178.029497,31.073911 M174.97781,23.358627 C174.528947,23.6623162 174.070533,23.9782956 173.605778,24.2843367 C173.376049,24.4356123 173.129532,24.382203 172.990158,24.1707661 C172.850858,23.959481 172.901668,23.7115529 173.120131,23.5475319 C173.184595,23.4990539 173.253089,23.4560382 173.319866,23.4106707 C173.700609,23.152349 174.081426,22.8940273 174.453887,22.6413955 C174.19685,22.2212529 173.952274,21.8213663 173.70128,21.4110862 C173.638458,21.4498534 173.575858,21.4856619 173.516095,21.5259464 C173.260625,21.6983126 173.008288,21.8756101 172.750505,22.044183 C172.506451,22.2038038 172.259337,22.1613192 172.114815,21.9447235 C171.969845,21.7273691 172.02543,21.4767856 172.25792,21.3076058 C172.329099,21.2557897 172.403562,21.2086014 172.476382,21.1591372 C172.765801,20.9625699 173.055144,20.7660027 173.340981,20.5718631 C173.157138,20.1007389 172.982995,19.6544228 172.801241,19.188685 C172.491976,19.3980736 172.201961,19.6104208 171.895233,19.7939392 C171.779212,19.8633561 171.620662,19.9040958 171.4886,19.8900607 C171.309383,19.8708668 171.197615,19.7249017 171.166949,19.5405488 C171.134493,19.3452712 171.214328,19.1927818 171.374071,19.0837632 C171.742652,18.8324211 172.11198,18.5821411 172.487723,18.3269299 C172.419827,18.1464461 172.364987,17.9776456 172.294106,17.8161282 C172.113099,17.4034962 171.93709,16.9879055 171.735639,16.5855913 C171.597384,16.3096688 171.547543,16.2934336 171.269913,16.4315845 C171.009594,16.5611626 170.743305,16.7017412 170.525588,16.8918599 C169.950109,17.3944682 169.402386,17.9296987 168.83586,18.4430799 C168.758414,18.5134071 168.637021,18.5700785 168.535773,18.5702303 C168.163834,18.5709131 167.790776,18.5580918 167.420106,18.5267594 C166.426802,18.4427005 165.525942,18.1381009 164.79169,17.4073654 C164.4008,17.0184793 163.986706,16.6509114 163.560524,16.302234 C162.858877,15.7281605 162.628178,15.7696589 162.097839,16.5211816 C161.66457,17.135312 161.358588,17.8164316 161.122965,18.5288078 C160.957551,19.0286849 160.711333,19.4770495 160.384832,19.8828535 C160.177263,20.1407959 159.966784,20.3962347 159.760707,20.6488665 C159.903289,20.9411759 160.128169,21.2233193 160.539353,21.4539502 C161.099462,21.7680329 161.67897,22.0510109 162.267058,22.3072842 C162.714728,22.5023342 163.181274,22.6634723 163.652297,22.7903193 C165.053875,23.1678255 166.305633,23.8392343 167.49524,24.6707192 C169.305316,25.9359265 171.135687,27.1729119 173.081781,28.2180337 C174.673917,29.0731127 176.307686,29.8190972 178.107765,30.1001027 C179.500017,30.3173812 180.813926,30.1293867 181.99346,29.2894808 C182.034646,29.2601968 182.062401,29.1990493 182.078294,29.1470815 C182.19133,28.7769342 182.071429,28.4576167 181.846625,28.1731973 C181.282412,27.4593038 180.532566,27.0871082 179.645509,27.0558516 C178.998851,27.033092 178.408822,26.8632293 177.911611,26.467743 C177.373587,26.0397862 176.855559,25.5756417 176.385058,25.0728817 C175.883445,24.5368167 175.447639,23.9370248 174.97781,23.358627 M177.815511,31.9358179 C176.570394,32.0288289 175.420032,31.6391083 174.281236,31.2099377 C172.520105,30.5462671 170.81814,29.7393627 169.18161,28.8112253 C167.257751,27.7200532 165.257341,26.8645191 163.117257,26.3243574 C162.034643,26.0510902 160.979636,25.6641766 159.996106,25.1159732 C159.608201,24.8998327 159.228726,24.6493251 158.894093,24.3567881 C158.002709,23.5774987 157.787753,22.6212153 158.204906,21.5028075 C158.428816,20.9025604 158.809708,20.4057179 159.210446,19.9216966 C159.365713,19.734309 159.521054,19.5469215 159.67453,19.3580166 C159.946415,19.0232226 160.132645,18.6450336 160.29694,18.24234 C160.569944,17.5732071 160.864734,16.9083986 161.214215,16.2784123 C161.41007,15.9252588 161.705979,15.613452 162.007186,15.3405642 C162.441575,14.9468986 162.963259,14.8915927 163.471065,15.1898955 C163.828678,15.3998909 164.161148,15.659654 164.484439,15.9230587 C164.791615,16.1733387 165.085585,16.4441023 165.362095,16.7291286 C165.95093,17.3362795 166.691524,17.5322398 167.491062,17.6524865 C168.089222,17.7424628 168.515553,17.5885319 168.928603,17.1344775 C169.331281,16.6918787 169.816629,16.3170278 170.303918,15.9676676 C170.600722,15.754941 170.961171,15.6209627 171.308935,15.4983642 C171.698109,15.3611995 172.041919,15.5057231 172.273066,15.8376343 C172.482351,16.138213 172.67664,16.4588202 172.819521,16.7960419 C173.107895,17.476327 173.384256,18.1644262 173.616522,18.8661054 C174.168274,20.5334752 175.003327,22.032348 176.120113,23.3719034 C176.540176,23.8757256 176.94666,24.3932035 177.393135,24.8719142 C178.106646,25.6369409 178.899841,26.2001657 180.027371,26.2157181 C180.894283,26.2277807 181.642562,26.6847939 182.268702,27.3079523 C183.492631,28.5260473 182.984973,29.904901 182.166186,30.6549822 C181.603391,31.1704118 180.926067,31.4731906 180.197709,31.6233283 C179.413393,31.7850733 178.615347,31.8774015 177.823346,32 C177.820734,31.9786818 177.818123,31.9572878 177.815511,31.9358179" id="shoe"></path>
            </g>
        </g>
    </g>
</svg>