<?xml version="1.0" encoding="UTF-8"?>
<svg width="19px" height="19px" viewBox="0 0 19 19" version="1.1" xmlns="http://www.w3.org/2000/svg" xmlns:xlink="http://www.w3.org/1999/xlink">
    <!-- Generator: Sketch 61 (89581) - https://sketch.com -->
    <title>soccer</title>
    <desc>Created with Sketch.</desc>
    <g id="website" stroke="none" stroke-width="1" fill="none" fill-rule="evenodd" fill-opacity="0.779173951">
        <g id="Artboard-Copy" transform="translate(-728.000000, -964.000000)" fill="#253533" stroke="#4F5B5A" stroke-width="0.5">
            <g id="footer" transform="translate(622.000000, 950.000000)">
                <path d="M115.378036,31.6963814 C115.993027,31.7011198 116.569515,31.6474183 117.140664,31.5398648 C117.670753,31.4400582 118.19069,31.2952747 118.682803,31.0771593 C119.119117,30.8837134 119.536406,30.6472462 119.960462,30.4264984 C119.986256,30.4130354 120.018667,30.3640722 120.011899,30.3434641 C119.953168,30.1637821 119.868567,29.997187 119.756894,29.8782013 C119.294936,30.0795444 118.851403,30.2851746 118.398469,30.4673386 C117.681657,30.7554766 116.934463,30.9292168 116.166815,31.016463 C116.122823,31.021427 116.074394,31.0467735 116.04123,31.0772345 C115.912637,31.1952424 115.790737,31.320546 115.663873,31.4405095 C115.578596,31.5210618 115.489182,31.5972517 115.378036,31.6963814 M116.148165,14.8579455 C114.122411,14.7339957 112.307443,15.2457397 110.651751,16.3958097 C110.951726,16.5324703 111.2323,16.664919 111.517761,16.7859354 C111.56243,16.8048137 111.632743,16.7813475 111.685083,16.7614915 C112.083044,16.6105406 112.477998,16.4516924 112.876637,16.3027722 C113.662483,16.0092189 114.465551,15.7726765 115.288547,15.6090147 C115.461283,15.5746427 115.603863,15.5192865 115.69636,15.3595357 C115.734186,15.2942515 115.794046,15.2414526 115.845859,15.1847426 C115.938807,15.0827548 116.033184,14.9820456 116.148165,14.8579455 M120.411666,30.1279811 C121.229548,29.5439582 121.925079,28.8351583 122.493746,28.0006787 C123.205671,26.9561315 123.658228,25.8098221 123.857359,24.5620514 C123.870143,24.4814991 123.854351,24.4415614 123.771104,24.4214797 C123.497374,24.3554434 123.239887,24.249319 123.005035,24.0915237 C122.994582,24.0844538 122.979843,24.0839273 122.975105,24.0827239 C122.730553,24.4142594 122.490813,24.7403795 122.24987,25.0657476 C121.838448,25.6213402 121.368744,26.1224792 120.84625,26.5751064 C120.809101,26.6072972 120.780224,26.6631799 120.771877,26.712143 C120.714424,27.0496202 120.675094,27.390482 120.607789,27.7257029 C120.487844,28.3228879 120.299316,28.9002168 120.062359,29.4616008 C120.049124,29.4928891 120.038746,29.5415514 120.053636,29.5659202 C120.167414,29.7525969 120.287735,29.9353626 120.411666,30.1279811 M109.894555,27.7717327 C109.659102,28.0915351 109.422671,28.4106605 109.190753,28.7330201 C109.177592,28.7512214 109.190452,28.8068785 109.209929,28.8268097 C109.451323,29.0736562 109.687528,29.3265949 109.941932,29.5593767 C110.551884,30.1173009 111.239444,30.5598496 111.988592,30.9098121 C112.783012,31.2810596 113.614656,31.5172259 114.483223,31.6300443 C114.611516,31.6467414 114.730333,31.6527584 114.836666,31.5598713 C114.89412,31.5097047 114.965861,31.4760096 115.024517,31.4270465 C115.235079,31.2510499 115.442859,31.0716688 115.658534,30.8877749 C115.616572,30.8554336 115.598374,30.839263 115.578145,30.8263265 C114.86998,30.3695627 114.290108,29.7787708 113.801454,29.0983258 C113.678652,28.9274437 113.553894,28.8077058 113.332353,28.8291413 C113.294752,28.8328267 113.255648,28.8247038 113.217672,28.8195141 C112.06259,28.6600642 110.965638,28.3150658 109.894555,27.7717327 M121.917559,19.4710116 C122.119848,19.2354469 122.339284,18.9216616 122.437722,18.6352534 C122.47269,18.5334161 122.460808,18.4583543 122.393654,18.3773507 C122.193169,18.1354683 122.003739,17.8841842 121.798591,17.6464384 C121.374234,17.1547762 120.885881,16.7318579 120.354965,16.3600087 C119.768851,15.9496508 119.140474,15.6172128 118.467955,15.3685612 C117.925533,15.1680454 117.370702,15.0182227 116.798049,14.9377456 C116.750447,14.9310517 116.687053,14.9493283 116.649002,14.9791124 C116.553046,15.0541741 116.46273,15.1379606 116.378655,15.2263349 C116.235097,15.3771354 116.098157,15.5341785 115.955727,15.6915977 C115.989868,15.7213817 116.010097,15.7401848 116.031529,15.757634 C116.490479,16.1301601 116.9295,16.5241969 117.312873,16.9756207 C117.642853,17.3642422 117.968698,17.7564739 118.291008,18.1514885 C118.348987,18.2224888 118.412682,18.2534762 118.498712,18.2706246 C119.195145,18.409692 119.880524,18.5920064 120.539281,18.858032 C121.001389,19.0447088 121.451089,19.2622225 121.917559,19.4710116 M107.096189,22.8192339 C107.118298,22.8748157 107.124765,22.9607833 107.164847,22.9813162 C107.536263,23.1714527 107.927006,23.3098432 108.338428,23.3870861 C108.396634,23.3979919 108.426188,23.3767068 108.456794,23.3296992 C108.611106,23.0927055 108.764139,22.8546588 108.926648,22.6234565 C109.524418,21.7731071 110.222656,21.0143663 111.014293,20.3407657 C111.05069,20.3097782 111.081973,20.2493076 111.081973,20.2026008 C111.081973,19.2025792 111.092577,18.2036857 111.288474,17.2171271 C111.293889,17.1899003 111.263884,17.1373269 111.237188,17.1249921 C110.93646,16.9857743 110.633853,16.8502419 110.329215,16.7196735 C110.29748,16.7060601 110.239576,16.7171163 110.211,16.7391534 C110.108877,16.8178254 110.013824,16.9056733 109.91674,16.9908135 C109.332581,17.5035352 108.838287,18.0935751 108.420623,18.7475453 C107.987617,19.4255834 107.660871,20.1518326 107.435795,20.9252398 C107.256216,21.5422056 107.155898,22.171055 107.096189,22.8192339 M120.440844,26.3181814 C120.476564,26.3002809 120.543493,26.2838094 120.586131,26.2423675 C120.89122,25.9452793 121.21714,25.6645121 121.48696,25.3375645 C121.895525,24.8425177 122.265136,24.3152049 122.646779,23.7982713 C122.675205,23.7598379 122.682048,23.6926734 122.674453,23.6425068 C122.640387,23.4146138 122.596545,23.1880746 122.557967,22.9608585 C122.385984,21.9502319 122.155418,20.9544974 121.80378,19.9897503 C121.784679,19.9372521 121.737829,19.8793387 121.688648,19.8557221 C121.261057,19.6501671 120.836173,19.4370909 120.398506,19.2550021 C119.748471,18.9846894 119.067154,18.8128295 118.37809,18.673386 C118.340565,18.6657896 118.284165,18.6801551 118.256566,18.7058025 C117.922299,19.0182341 117.570736,19.3156232 117.26497,19.6541533 C116.731422,20.2447949 116.227953,20.8624376 115.708392,21.46579 C115.647705,21.5363391 115.642065,21.6008712 115.664701,21.6843567 C115.746669,21.9877628 115.823524,22.2925227 115.903312,22.5965305 C116.042509,23.126551 116.182908,23.6562706 116.322029,24.1862159 C116.443478,24.6489215 116.562671,25.1122287 116.686978,25.5741822 C116.695626,25.6058465 116.73458,25.6425501 116.766992,25.6527037 C116.946871,25.7089625 117.12818,25.761235 117.310692,25.808393 C117.977271,25.9804034 118.650542,26.1199972 119.334943,26.1994966 C119.692372,26.2410889 120.050552,26.2765139 120.440844,26.3181814 M113.601872,28.4617296 C113.653159,28.4363079 113.686623,28.4266055 113.711439,28.4062982 C113.848981,28.2934799 113.984793,28.1784052 114.120606,28.0634057 C114.909987,27.3956717 115.633417,26.664985 116.247054,25.8301294 C116.275104,25.7919968 116.291498,25.7269382 116.28097,25.6820365 C116.218478,25.4171391 116.146586,25.154498 116.077402,24.89118 C115.803371,23.8480618 115.528512,22.8053196 115.256436,21.7617501 C115.237787,21.6901481 115.206277,21.6490822 115.13416,21.6250895 C114.571283,21.4381871 114.016829,21.2212751 113.445605,21.065285 C112.800308,20.889138 112.139971,20.7684223 111.487155,20.6195022 C111.386085,20.596412 111.314569,20.6253687 111.244482,20.6931349 C110.930895,20.9964658 110.605352,21.2881388 110.302519,21.6018489 C109.713247,22.2121209 109.213689,22.8931675 108.773389,23.6176116 C108.752333,23.6522092 108.745715,23.7039552 108.751355,23.7452467 C108.824375,24.2825628 108.948381,24.8088979 109.110739,25.3257562 C109.279715,25.8632227 109.511408,26.3746658 109.756186,26.8815961 C109.90576,27.1915457 110.071352,27.4711095 110.431864,27.5677572 C110.474954,27.5793399 110.513532,27.6069428 110.555043,27.6252193 C111.115212,27.8726675 111.688692,28.0843147 112.287515,28.2148831 C112.726912,28.3107035 113.171724,28.3818542 113.601872,28.4617296 M124.37692,23.2593006 C124.36534,28.2084149 120.354513,32.1240381 115.513848,32.1115078 C110.575422,32.0986164 106.670403,28.0863454 106.684652,23.2498238 C106.699355,18.3006343 110.717852,14.4050927 115.545207,14.419269 C120.485889,14.433899 124.369701,18.442635 124.37692,23.2593006" id="soccer"></path>
            </g>
        </g>
    </g>
</svg>